<svg height="512pt" viewBox="-16 0 512 512" width="512pt" xmlns="http://www.w3.org/2000/svg"><path d="m285 90h-45l-15-28.59375 15-31.40625h45c8.285156 0 15 6.714844 15 15v30c0 8.285156-6.714844 15-15 15zm0 0" fill="#a8d3d8"/><path d="m192.933594 199.394531-50.125-75.191406c-2.636719-3.953125-3.253906-8.933594-1.625-13.417969 1.609375-4.480468 5.257812-7.921875 9.828125-9.269531l69.710937-20.757813c4.542969-1.347656 9.464844-.46875 13.242188 2.34375 3.792968 2.828126 6.035156 7.296876 6.035156 12.027344v54.871094c0 20.933594 11.207031 40.664062 29.222656 51.488281 5.332032 3.195313 8.132813 9.347657 7.0625 15.453125-1.085937 6.125-5.816406 10.945313-11.910156 12.128906-26.984375 5.308594-55.453125-5.675781-71.441406-29.675781zm0 0" fill="#a8d3d8"/><path d="m45 30c-24.902344 0-45 20.097656-45 45v30c0 19.5 12.597656 36.300781 30 42.300781v77.699219c0 8.402344 6.597656 15 15 15h60c8.402344 0 15-6.597656 15-15v-75.902344c17.101562-2.398437 33.601562-8.398437 48.300781-18.296875l71.699219-40.800781v-60zm0 0" fill="#ec5569"/><path d="m240 30v60l-71.699219 40.800781c-14.699219 9.898438-31.199219 15.898438-48.300781 18.300781v-119.101562zm0 0" fill="#cc2e43"/><path d="m270 375v16l-30 30h-210l-30-30v-136c0-24.902344 20.097656-45 45-45h90c5.699219 0 10.800781 3.300781 13.5 8.402344l51.597656 103.195312c2.703125 5.101563 7.800782 8.402344 13.5 8.402344h11.402344c24.902344 0 45 20.097656 45 45zm0 0" fill="#deecf1"/><path d="m270 375v16l-30 30h-120v-211h15c5.699219 0 10.800781 3.300781 13.5 8.402344l51.597656 103.195312c2.703125 5.101563 7.800782 8.402344 13.5 8.402344h11.402344c24.902344 0 45 20.097656 45 45zm0 0" fill="#c6e2e7"/><g fill="#76e2f8"><path d="m419.972656 45c0 8.285156-6.714844 15-15 15s-15-6.714844-15-15 6.714844-15 15-15 15 6.714844 15 15zm0 0"/><path d="m419.972656 105c0 8.285156-6.714844 15-15 15s-15-6.714844-15-15 6.714844-15 15-15 15 6.714844 15 15zm0 0"/><path d="m359.972656 75c0 8.285156-6.714844 15-15 15s-15-6.714844-15-15 6.714844-15 15-15 15 6.714844 15 15zm0 0"/><path d="m479.972656 15c0 8.285156-6.714844 15-15 15s-15-6.714844-15-15 6.714844-15 15-15 15 6.714844 15 15zm0 0"/><path d="m479.972656 75c0 8.285156-6.714844 15-15 15s-15-6.714844-15-15 6.714844-15 15-15 15 6.714844 15 15zm0 0"/><path d="m479.972656 135c0 8.285156-6.714844 15-15 15s-15-6.714844-15-15 6.714844-15 15-15 15 6.714844 15 15zm0 0"/></g><path d="m270 391v76c0 24.902344-20.097656 45-45 45h-180c-24.902344 0-45-20.097656-45-45v-76zm0 0" fill="#a8ebfa"/><path d="m270 391v76c0 24.902344-20.097656 45-45 45h-105v-121zm0 0" fill="#76e2f8"/></svg>